<svg xmlns="http://www.w3.org/2000/svg" width="500" height="500" viewBox="0 0 500 500">
<rect width="100%" height="100%" fill="black"/>
<path d="M 357.00,285.50 356.00,285.50 355.00,285.50 354.00,285.50 353.50,285.00 353.00,284.50 352.50,284.00 352.00,283.50 351.50,283.00 351.00,282.50 350.50,282.00 350.00,281.50 349.50,281.00 349.00,280.50 348.50,280.00 348.00,279.50 347.50,279.00 347.00,278.50 346.50,278.00 346.00,277.50 345.50,277.00 345.00,276.50 344.50,276.00 344.00,275.50 343.50,275.00 343.00,274.50 342.50,274.00 342.00,273.50 341.50,273.00 341.00,272.50 340.50,272.00 340.00,271.50 339.50,271.00 339.00,270.50 338.50,270.00 338.00,269.50 337.50,269.00 337.00,268.50 336.50,268.00 336.00,267.50 335.50,267.00 335.00,266.50 334.50,266.00 334.00,265.50 333.50,265.00 333.00,264.50 332.50,264.00 332.00,263.50 331.50,263.00 331.00,262.50 330.50,262.00 330.00,261.50 329.50,261.00 329.00,260.50 328.50,260.00 328.00,259.50 327.50,259.00 327.00,258.50 326.50,258.00 326.00,257.50 325.50,257.00 325.00,256.50 324.50,256.00 324.00,255.50 323.50,255.00 323.00,254.50 322.50,254.00 322.00,253.50 321.50,253.00 321.00,252.50 320.50,252.00 320.00,251.50 319.50,251.00 319.00,250.50 318.50,250.00 318.00,249.50 317.50,249.00 317.00,248.50 316.50,248.00 316.00,247.50 315.50,247.00 315.00,246.50 314.50,246.00 314.00,245.50 313.50,245.00 313.00,244.50 312.50,244.00 312.00,243.50 311.50,243.00 311.00,242.50 310.50,242.00 310.00,241.50 309.50,241.00 309.00,240.50 308.50,240.00 308.00,239.50 307.50,239.00 307.00,238.50 306.50,238.00 306.00,237.50 305.50,237.00 305.00,236.50 304.50,236.00 304.00,235.50 303.50,235.00 303.00,234.50 302.50,234.00 302.00,233.50 301.50,233.00 301.00,232.50 300.50,232.00 300.00,231.50 299.50,231.00 299.00,230.50 298.50,230.00 298.00,229.50 297.50,229.00 297.00,228.50 296.50,228.00 296.00,227.50 295.50,227.00 295.00,226.50 294.50,226.00 294.00,225.50 293.50,225.00 293.00,224.50 292.50,224.00 292.00,223.50 291.50,223.00 291.00,222.50 290.50,222.00 290.00,221.50 289.50,221.00 289.00,220.50 288.50,220.00 288.00,219.50 287.50,219.00 287.00,218.50 286.50,218.00 286.00,217.50 285.50,217.00 285.00,216.50 284.50,216.00 284.00,215.50 283.50,215.00 283.00,214.50 282.50,214.00 282.00,213.50 281.50,213.00 281.00,212.50 280.50,212.00 280.00,211.50 279.50,211.00 279.00,210.50 278.50,210.00 278.00,209.50 277.50,209.00 277.00,208.50 276.50,208.00 276.00,207.50 275.50,207.00 275.00,206.50 274.50,206.00 274.00,205.50 273.50,205.00 273.00,204.50 272.50,204.00 272.00,203.50 271.50,203.00 271.00,202.50 270.50,202.00 270.00,201.50 269.50,201.00 269.00,200.50 268.50,200.00 268.00,199.50 267.50,199.00 267.00,198.50 266.50,198.00 266.00,197.50 265.50,197.00 265.00,196.50 264.50,196.00 264.00,195.50 263.50,195.00 263.00,194.50 262.50,194.00 262.00,193.50 261.50,193.00 261.00,192.50 260.50,192.00 260.00,191.50 259.50,191.00 259.00,190.50 258.50,190.00 258.00,189.50 257.50,189.00 257.00,188.50 256.50,188.00 256.00,187.50 255.50,187.00 255.00,186.50 254.50,186.00 254.00,185.50 253.50,185.00 253.00,184.50 252.50,184.00 252.00,183.50 251.50,183.00 251.00,182.50 250.50,182.00 250.00,181.50 249.50,181.00 249.00,180.50 248.50,180.00 248.00,179.50 247.50,179.00 247.00,178.50 246.50,178.00 246.00,177.50 245.50,177.00 245.00,176.50 244.50,176.00 244.00,175.50 243.50,175.00 243.00,174.50 242.50,174.00 242.00,173.50 241.50,173.00 241.00,172.50 240.50,172.00 240.00,171.50 239.50,171.00 239.00,170.50 238.50,170.00 238.00,169.50 237.50,169.00 237.00,168.50 236.50,168.00 236.00,167.50 235.50,167.00 235.00,166.50 234.50,166.00 234.00,165.50 233.50,165.00 233.00,164.50 232.50,164.00 232.00,163.50 231.50,163.00 231.00,162.50 230.50,162.00 230.00,161.50 229.50,161.00 229.00,160.50 228.50,160.00 228.00,159.50 227.50,159.00 227.00,158.50 226.50,158.00 226.00,157.50 225.50,157.00 225.00,156.50 224.50,156.00 224.00,155.50 223.50,155.00 223.00,154.50 222.50,154.00 222.00,153.50 221.50,153.00 221.00,152.50 220.50,152.00 220.00,151.50 219.50,151.00 219.00,150.50 218.50,150.00 218.00,149.50 217.50,149.00 217.00,148.50 216.50,148.00 216.00,147.50 215.50,147.00 215.00,146.50 214.50,146.00 214.00,145.50 213.50,145.00 213.00,144.50 212.50,144.00 212.00,143.50 211.50,143.00 211.00,142.50 210.50,142.00 210.00,141.50 209.50,141.00 209.00,140.50 208.50,140.00 208.00,139.50 207.50,139.00 207.00,138.50 206.50,138.00 206.00,137.50 205.50,137.00 205.00,136.50 204.50,136.00 204.00,135.50 203.50,135.00 203.00,134.50 202.50,134.00 202.00,133.50 201.50,133.00 201.00,132.50 200.50,132.00 200.00,131.50 199.50,131.00 199.00,130.50 198.50,130.00 198.00,129.50 197.50,129.00 197.00,128.50 196.50,128.00 196.00,127.50 195.50,127.00 195.00,126.50 194.50,126.00 194.00,125.50 193.50,125.00 193.00,124.50 192.50,124.00 192.00,123.50 191.50,123.00 191.00,122.50 190.50,122.00 190.00,121.50 189.50,121.00 189.00,120.50 188.50,120.00 188.00,119.50 187.50,119.00 187.00,118.50 186.50,118.00 186.00,117.50 185.50,117.00 185.00,116.50 184.50,116.00 184.00,115.50 183.50,115.00 183.50,114.00 183.00,113.50 182.50,113.00 182.00,112.50 181.50,112.00 181.00,111.50 180.50,111.00 180.00,110.50 179.50,110.00 179.00,109.50 178.50,109.00 178.00,108.50 177.50,108.00 177.00,107.50 176.50,107.00 176.00,106.50 175.50,106.00 175.00,105.50 174.50,105.00 174.00,104.50 173.50,104.00 173.00,103.50 172.50,103.00 172.00,102.50 171.50,102.00 171.00,101.50 170.50,101.00 170.00,100.50 169.50,100.00 169.00,99.50 168.50,99.00 168.00,98.50 167.50,98.00 167.00,97.50 166.50,97.00 166.00,96.50 165.50,96.00 165.00,95.50 164.50,95.00 164.00,94.50 163.50,94.00 163.00,93.50 162.50,93.00 162.00,92.50 161.50,92.00 161.00,91.50 160.50,91.00 160.00,90.50 159.50,90.00 159.00,89.50 158.50,89.00 158.00,88.50 157.50,88.00 157.00,87.50 156.50,87.00 156.00,86.50 155.50,86.00 155.00,85.50 154.50,85.00 154.00,84.50 153.50,84.00 153.00,83.50 152.50,83.00 152.00,82.50 151.50,82.00 151.00,81.50 150.50,81.00 150.00,80.50 149.50,80.00 149.00,79.50 148.50,79.00 148.00,78.50 147.50,78.00 147.00,77.50 146.50,77.00 146.00,76.50 145.50,76.00 145.00,75.50 144.50,75.00 144.00,74.50 143.50,74.00 143.00,73.50 142.50,73.00 142.00,72.50 141.50,72.00 141.00,71.50 140.50,71.00 140.00,70.50 139.50,70.00 140.00,69.50 141.00,69.50 142.00,69.50 143.00,69.50 144.00,69.50 145.00,69.50 146.00,69.50 147.00,69.50 148.00,69.50 149.00,69.50 150.00,69.50 151.00,69.50 152.00,69.50 153.00,69.50 154.00,69.50 155.00,69.50 156.00,69.50 157.00,69.50 158.00,69.50 159.00,69.50 160.00,69.50 161.00,69.50 162.00,69.50 163.00,69.50 164.00,69.50 165.00,69.50 166.00,69.50 167.00,69.50 168.00,69.50 169.00,69.50 170.00,69.50 171.00,69.50 172.00,69.50 173.00,69.50 174.00,69.50 175.00,69.50 176.00,69.50 177.00,69.50 178.00,69.50 179.00,69.50 180.00,69.50 181.00,69.50 182.00,69.50 183.00,69.50 184.00,69.50 185.00,69.50 186.00,69.50 187.00,69.50 188.00,69.50 189.00,69.50 190.00,69.50 191.00,69.50 192.00,69.50 193.00,69.50 194.00,69.50 195.00,69.50 196.00,69.50 197.00,69.50 198.00,69.50 199.00,69.50 200.00,69.50 201.00,69.50 202.00,69.50 203.00,69.50 204.00,69.50 205.00,69.50 206.00,69.50 207.00,69.50 208.00,69.50 209.00,69.50 210.00,69.50 211.00,69.50 212.00,69.50 213.00,69.50 214.00,69.50 215.00,69.50 216.00,69.50 217.00,69.50 218.00,69.50 219.00,69.50 220.00,69.50 221.00,69.50 222.00,69.50 223.00,69.50 224.00,69.50 225.00,69.50 226.00,69.50 227.00,69.50 228.00,69.50 229.00,69.50 230.00,69.50 231.00,69.50 232.00,69.50 233.00,69.50 234.00,69.50 235.00,69.50 236.00,69.50 237.00,69.50 238.00,69.50 239.00,69.50 240.00,69.50 241.00,69.50 242.00,69.50 243.00,69.50 244.00,69.50 245.00,69.50 246.00,69.50 247.00,69.50 248.00,69.50 249.00,69.50 250.00,69.50 251.00,69.50 252.00,69.50 253.00,69.50 254.00,69.50 255.00,69.50 256.00,69.50 257.00,69.50 258.00,69.50 259.00,69.50 260.00,69.50 261.00,69.50 262.00,69.50 263.00,69.50 264.00,69.50 265.00,69.50 266.00,69.50 267.00,69.50 268.00,69.50 269.00,69.50 270.00,69.50 271.00,69.50 272.00,69.50 273.00,69.50 274.00,69.50 275.00,69.50 276.00,69.50 277.00,69.50 278.00,69.50 279.00,69.50 280.00,69.50 281.00,69.50 282.00,69.50 283.00,69.50 284.00,69.50 285.00,69.50 286.00,69.50 287.00,69.50 288.00,69.50 289.00,69.50 290.00,69.50 291.00,69.50 292.00,69.50 293.00,69.50 294.00,69.50 295.00,69.50 296.00,69.50 297.00,69.50 298.00,69.50 299.00,69.50 300.00,69.50 301.00,69.50 302.00,69.50 303.00,69.50 304.00,69.50 305.00,69.50 306.00,69.50 307.00,69.50 308.00,69.50 309.00,69.50 310.00,69.50 311.00,69.50 312.00,69.50 313.00,69.50 314.00,69.50 315.00,69.50 316.00,69.50 317.00,69.50 318.00,69.50 319.00,69.50 320.00,69.50 321.00,69.50 322.00,69.50 323.00,69.50 324.00,69.50 325.00,69.50 326.00,69.50 327.00,69.50 328.00,69.50 329.00,69.50 330.00,69.50 331.00,69.50 332.00,69.50 333.00,69.50 334.00,69.50 335.00,69.50 336.00,69.50 337.00,69.50 338.00,69.50 339.00,69.50 340.00,69.50 341.00,69.50 342.00,69.50 343.00,69.50 344.00,69.50 345.00,69.50 345.50,70.00 346.00,70.50 347.00,70.50 348.00,70.50 349.00,70.50 350.00,70.50 351.00,70.50 352.00,70.50 352.50,71.00 353.00,71.50 354.00,71.50 355.00,71.50 356.00,71.50 357.00,71.50 357.50,72.00 358.00,72.50 359.00,72.50 360.00,72.50 361.00,72.50 361.50,73.00 362.00,73.50 363.00,73.50 364.00,73.50 364.50,74.00 365.00,74.50 366.00,74.50 366.50,75.00 367.00,75.50 368.00,75.50 369.00,75.50 369.50,76.00 370.00,76.50 371.00,76.50 371.50,77.00 372.00,77.50 373.00,77.50 373.50,78.00 374.00,78.50 375.00,78.50 376.00,78.50 376.50,79.00 377.00,79.50 378.00,79.50 378.50,80.00 379.00,80.50 379.50,81.00 380.00,81.50 381.00,81.50 381.50,82.00 382.00,82.50 383.00,82.50 383.50,83.00 384.00,83.50 384.50,84.00 385.00,84.50 385.50,85.00 386.00,85.50 387.00,85.50 387.50,86.00 388.00,86.50 388.50,87.00 389.00,87.50 389.50,88.00 390.00,88.50 391.00,88.50 391.50,89.00 392.00,89.50 392.50,90.00 393.00,90.50 393.50,91.00 394.00,91.50 394.50,92.00 395.00,92.50 395.50,93.00 396.00,93.50 396.50,94.00 397.00,94.50 397.50,95.00 398.00,95.50 398.50,96.00 399.00,96.50 399.50,97.00 400.00,97.50 400.50,98.00 401.00,98.50 401.50,99.00 402.00,99.50 402.50,100.00 402.50,101.00 403.00,101.50 403.50,102.00 404.00,102.50 404.50,103.00 405.00,103.50 405.50,104.00 406.00,104.50 406.50,105.00 406.50,106.00 407.00,106.50 407.50,107.00 408.00,107.50 408.50,108.00 408.50,109.00 409.00,109.50 409.50,110.00 409.50,111.00 410.00,111.50 410.50,112.00 411.00,112.50 411.50,113.00 411.50,114.00 412.00,114.50 412.50,115.00 412.50,116.00 413.00,116.50 413.50,117.00 413.50,118.00 414.00,118.50 414.50,119.00 414.50,120.00 415.00,120.50 415.50,121.00 415.50,122.00 415.50,123.00 416.00,123.50 416.50,124.00 416.50,125.00 417.00,125.50 417.50,126.00 417.50,127.00 417.50,128.00 418.00,128.50 418.50,129.00 418.50,130.00 418.50,131.00 418.50,132.00 419.00,132.50 419.50,133.00 419.50,134.00 419.50,135.00 419.50,136.00 420.00,136.50 420.50,137.00 420.50,138.00 420.50,139.00 420.50,140.00 420.50,141.00 421.00,141.50 421.50,142.00 421.50,143.00 421.50,144.00 421.50,145.00 421.50,146.00 421.50,147.00 421.50,148.00 421.50,149.00 421.50,150.00 421.50,151.00 422.00,151.50 422.50,152.00 422.50,153.00 422.50,154.00 422.50,155.00 422.50,156.00 422.50,157.00 422.50,158.00 422.50,159.00 422.50,160.00 422.50,161.00 422.50,162.00 422.50,163.00 422.50,164.00 422.50,165.00 422.50,166.00 422.50,167.00 422.50,168.00 422.50,169.00 422.50,170.00 422.50,171.00 422.50,172.00 422.50,173.00 422.50,174.00 422.50,175.00 422.50,176.00 422.50,177.00 422.50,178.00 422.50,179.00 422.50,180.00 422.50,181.00 422.50,182.00 422.50,183.00 422.50,184.00 422.50,185.00 422.50,186.00 422.50,187.00 422.50,188.00 422.50,189.00 422.50,190.00 422.50,191.00 422.50,192.00 422.50,193.00 422.50,194.00 422.50,195.00 422.50,196.00 422.50,197.00 422.50,198.00 422.50,199.00 422.50,200.00 422.50,201.00 422.50,202.00 422.50,203.00 422.50,204.00 422.50,205.00 422.50,206.00 422.50,207.00 422.00,207.50 421.50,208.00 421.50,209.00 421.50,210.00 421.50,211.00 421.50,212.00 421.50,213.00 421.50,214.00 421.50,215.00 421.50,216.00 421.00,216.50 420.50,217.00 420.50,218.00 420.50,219.00 420.50,220.00 420.50,221.00 420.00,221.50 419.50,222.00 419.50,223.00 419.50,224.00 419.50,225.00 419.00,225.50 418.50,226.00 418.50,227.00 418.50,228.00 418.00,228.50 417.50,229.00 417.50,230.00 417.50,231.00 417.00,231.50 416.50,232.00 416.50,233.00 416.50,234.00 416.00,234.50 415.50,235.00 415.50,236.00 415.00,236.50 414.50,237.00 414.50,238.00 414.00,238.50 413.50,239.00 413.50,240.00 413.00,240.50 412.50,241.00 412.50,242.00 412.00,242.50 411.50,243.00 411.50,244.00 411.00,244.50 410.50,245.00 410.50,246.00 410.00,246.50 409.50,247.00 409.00,247.50 408.50,248.00 408.50,249.00 408.00,249.50 407.50,250.00 407.00,250.50 406.50,251.00 406.50,252.00 406.00,252.50 405.50,253.00 405.00,253.50 404.50,254.00 404.00,254.50 403.50,255.00 403.50,256.00 403.00,256.50 402.50,257.00 402.00,257.50 401.50,258.00 401.00,258.50 400.50,259.00 400.00,259.50 399.50,260.00 399.00,260.50 398.50,261.00 398.00,261.50 397.50,262.00 397.00,262.50 396.50,263.00 396.00,263.50 395.50,264.00 395.00,264.50 394.50,265.00 394.00,265.50 393.50,266.00 393.00,266.50 392.50,267.00 392.00,267.50 391.50,268.00 391.00,268.50 390.00,268.50 389.50,269.00 389.00,269.50 388.50,270.00 388.00,270.50 387.50,271.00 387.00,271.50 386.00,271.50 385.50,272.00 385.00,272.50 384.50,273.00 384.00,273.50 383.00,273.50 382.50,274.00 382.00,274.50 381.50,275.00 381.00,275.50 380.00,275.50 379.50,276.00 379.00,276.50 378.00,276.50 377.50,277.00 377.00,277.50 376.00,277.50 375.50,278.00 375.00,278.50 374.00,278.50 373.50,279.00 373.00,279.50 372.00,279.50 371.50,280.00 371.00,280.50 370.00,280.50 369.50,281.00 369.00,281.50 368.00,281.50 367.50,282.00 367.00,282.50 366.00,282.50 365.00,282.50 364.50,283.00 364.00,283.50 363.00,283.50 362.00,283.50 361.50,284.00 361.00,284.50 360.00,284.50 359.00,284.50 358.00,284.50 357.50,285.00 357.00,285.50 Z" fill="white"/><path d="M 436.00,429.50 435.00,429.50 434.00,429.50 433.00,429.50 432.00,429.50 431.00,429.50 430.00,429.50 429.00,429.50 428.00,429.50 427.00,429.50 426.00,429.50 425.00,429.50 424.00,429.50 423.00,429.50 422.00,429.50 421.00,429.50 420.00,429.50 419.00,429.50 418.00,429.50 417.00,429.50 416.00,429.50 415.00,429.50 414.00,429.50 413.00,429.50 412.00,429.50 411.00,429.50 410.00,429.50 409.00,429.50 408.00,429.50 407.00,429.50 406.00,429.50 405.00,429.50 404.00,429.50 403.00,429.50 402.00,429.50 401.00,429.50 400.00,429.50 399.00,429.50 398.00,429.50 397.00,429.50 396.00,429.50 395.00,429.50 394.00,429.50 393.00,429.50 392.00,429.50 391.00,429.50 390.00,429.50 389.00,429.50 388.00,429.50 387.00,429.50 386.00,429.50 385.00,429.50 384.00,429.50 383.00,429.50 382.00,429.50 381.00,429.50 380.00,429.50 379.00,429.50 378.00,429.50 377.00,429.50 376.00,429.50 375.00,429.50 374.00,429.50 373.00,429.50 372.00,429.50 371.00,429.50 370.00,429.50 369.00,429.50 368.00,429.50 367.00,429.50 366.00,429.50 365.00,429.50 364.00,429.50 363.00,429.50 362.00,429.50 361.00,429.50 360.00,429.50 359.00,429.50 358.00,429.50 357.00,429.50 356.00,429.50 355.00,429.50 354.00,429.50 353.00,429.50 352.00,429.50 351.00,429.50 350.00,429.50 349.00,429.50 348.00,429.50 347.00,429.50 346.00,429.50 345.00,429.50 344.00,429.50 343.00,429.50 342.00,429.50 341.00,429.50 340.00,429.50 339.00,429.50 338.00,429.50 337.00,429.50 336.00,429.50 335.00,429.50 334.00,429.50 333.00,429.50 332.00,429.50 331.00,429.50 330.00,429.50 329.00,429.50 328.00,429.50 327.00,429.50 326.00,429.50 325.00,429.50 324.00,429.50 323.00,429.50 322.00,429.50 321.00,429.50 320.00,429.50 319.00,429.50 318.00,429.50 317.00,429.50 316.00,429.50 315.00,429.50 314.00,429.50 313.00,429.50 312.00,429.50 311.00,429.50 310.00,429.50 309.00,429.50 308.00,429.50 307.00,429.50 306.00,429.50 305.00,429.50 304.00,429.50 303.00,429.50 302.00,429.50 301.00,429.50 300.00,429.50 299.00,429.50 298.00,429.50 297.00,429.50 296.00,429.50 295.00,429.50 294.00,429.50 293.00,429.50 292.00,429.50 291.00,429.50 290.00,429.50 289.50,429.00 289.00,428.50 288.50,428.00 288.00,427.50 287.50,427.00 287.00,426.50 286.50,426.00 286.00,425.50 285.50,425.00 285.00,424.50 284.50,424.00 284.00,423.50 283.50,423.00 283.00,422.50 282.50,422.00 282.00,421.50 281.50,421.00 281.00,420.50 280.50,420.00 280.00,419.50 279.50,419.00 279.00,418.50 278.50,418.00 278.00,417.50 277.50,417.00 277.00,416.50 276.50,416.00 276.00,415.50 275.50,415.00 275.00,414.50 274.50,414.00 274.00,413.50 273.50,413.00 273.00,412.50 272.50,412.00 272.00,411.50 271.50,411.00 271.00,410.50 270.50,410.00 270.00,409.50 269.50,409.00 269.00,408.50 268.50,408.00 268.00,407.50 267.50,407.00 267.00,406.50 266.50,406.00 266.00,405.50 265.50,405.00 265.00,404.50 264.50,404.00 264.00,403.50 263.50,403.00 263.00,402.50 262.50,402.00 262.00,401.50 261.50,401.00 261.00,400.50 260.50,400.00 260.00,399.50 259.50,399.00 259.00,398.50 258.50,398.00 258.00,397.50 257.50,397.00 257.00,396.50 256.50,396.00 256.00,395.50 255.50,395.00 255.00,394.50 254.50,394.00 254.00,393.50 253.50,393.00 253.00,392.50 252.50,392.00 252.00,391.50 251.50,391.00 251.00,390.50 250.50,390.00 250.00,389.50 249.50,389.00 249.00,388.50 248.50,388.00 248.00,387.50 247.50,387.00 247.00,386.50 246.50,386.00 246.00,385.50 245.50,385.00 245.00,384.50 244.50,384.00 244.00,383.50 243.50,383.00 243.00,382.50 242.50,382.00 242.00,381.50 241.50,381.00 241.00,380.50 240.50,380.00 240.00,379.50 239.50,379.00 239.00,378.50 238.50,378.00 238.00,377.50 237.50,377.00 237.00,376.50 236.50,376.00 236.00,375.50 235.50,375.00 235.00,374.50 234.50,374.00 234.00,373.50 233.50,373.00 233.00,372.50 232.50,372.00 232.00,371.50 231.50,371.00 231.00,370.50 230.50,370.00 230.00,369.50 229.50,369.00 229.00,368.50 228.50,368.00 228.00,367.50 227.50,367.00 227.00,366.50 226.50,366.00 226.00,365.50 225.50,365.00 225.00,364.50 224.50,364.00 224.00,363.50 223.50,363.00 223.00,362.50 222.50,362.00 222.00,361.50 221.50,361.00 221.00,360.50 220.50,360.00 220.00,359.50 219.50,359.00 219.00,358.50 218.50,358.00 218.00,357.50 217.50,357.00 217.00,356.50 216.50,356.00 216.00,355.50 215.50,355.00 215.00,354.50 214.50,354.00 214.00,353.50 213.50,353.00 213.00,352.50 212.50,352.00 212.00,351.50 211.50,351.00 211.00,350.50 210.50,350.00 210.00,349.50 209.50,349.00 209.00,348.50 208.50,348.00 208.00,347.50 207.50,347.00 207.00,346.50 206.50,346.00 206.00,345.50 205.50,345.00 205.00,344.50 204.50,344.00 204.00,343.50 203.50,343.00 203.00,342.50 202.50,342.00 202.00,341.50 201.50,341.00 201.00,340.50 200.50,340.00 200.00,339.50 199.50,339.00 199.00,338.50 198.50,338.00 198.00,337.50 197.50,337.00 197.00,336.50 196.50,336.00 196.00,335.50 195.50,335.00 195.00,334.50 194.50,334.00 194.00,333.50 193.50,333.00 193.00,332.50 192.50,332.00 192.00,331.50 191.50,331.00 191.00,330.50 190.50,330.00 190.00,329.50 189.50,329.00 189.00,328.50 188.50,328.00 188.00,327.50 187.50,327.00 187.00,326.50 186.50,326.00 186.00,325.50 185.50,325.00 185.00,324.50 184.50,324.00 184.00,323.50 183.50,323.00 183.00,322.50 182.50,322.00 182.00,321.50 181.50,321.00 181.00,320.50 180.50,320.00 180.00,319.50 179.50,319.00 179.00,318.50 178.50,318.00 178.00,317.50 177.50,317.00 177.00,316.50 176.50,316.00 176.00,315.50 175.50,315.00 175.00,314.50 174.50,314.00 174.00,313.50 173.50,313.00 173.00,312.50 172.50,312.00 172.00,311.50 171.50,311.00 171.00,310.50 170.50,310.00 170.00,309.50 169.50,309.00 169.00,308.50 168.50,308.00 168.00,307.50 167.50,307.00 167.00,306.50 166.50,306.00 166.00,305.50 165.50,305.00 165.00,304.50 164.50,304.00 164.00,303.50 163.50,303.00 163.00,302.50 162.50,302.00 162.00,301.50 161.50,301.00 161.00,300.50 160.50,300.00 160.00,299.50 159.50,299.00 159.00,298.50 158.50,298.00 158.00,297.50 157.50,297.00 157.00,296.50 156.50,296.00 156.00,295.50 155.50,295.00 155.00,294.50 154.50,294.00 154.00,293.50 153.50,293.00 153.00,292.50 152.50,292.00 152.00,291.50 151.50,291.00 151.00,290.50 150.50,290.00 150.00,289.50 149.50,289.00 149.00,288.50 148.50,288.00 148.00,287.50 147.50,287.00 147.00,286.50 146.50,286.00 146.00,285.50 145.50,285.00 145.00,284.50 144.50,284.00 144.00,283.50 143.50,283.00 143.00,282.50 142.50,282.00 142.00,281.50 141.50,281.00 141.00,280.50 140.50,280.00 140.00,279.50 139.50,279.00 139.00,278.50 138.50,278.00 138.00,277.50 137.50,277.00 137.00,276.50 136.50,276.00 136.00,275.50 135.50,275.00 135.00,274.50 134.50,274.00 134.00,273.50 133.50,273.00 133.00,272.50 132.50,272.00 132.00,271.50 131.50,271.00 131.00,270.50 130.50,270.00 130.00,269.50 129.50,269.00 129.00,268.50 128.50,268.00 128.00,267.50 127.50,267.00 127.00,266.50 126.50,266.00 126.00,265.50 125.50,265.00 125.00,264.50 124.50,264.00 124.00,263.50 123.50,263.00 123.00,262.50 122.50,262.00 122.00,261.50 121.50,261.00 121.00,260.50 120.50,260.00 120.00,259.50 119.50,259.00 119.00,258.50 118.50,258.00 118.00,257.50 117.50,257.00 117.00,256.50 116.50,256.00 116.00,255.50 115.50,255.00 115.00,254.50 114.50,254.00 114.00,253.50 113.50,253.00 113.00,252.50 112.50,252.00 112.00,251.50 111.50,251.00 111.00,250.50 110.50,250.00 110.00,249.50 109.50,249.00 109.00,248.50 108.50,248.00 108.00,247.50 107.50,247.00 107.00,246.50 106.50,246.00 106.00,245.50 105.50,245.00 105.00,244.50 104.50,244.00 104.00,243.50 103.50,243.00 103.00,242.50 102.50,242.00 102.00,241.50 101.50,241.00 101.00,240.50 100.50,240.00 100.00,239.50 99.50,239.00 99.00,238.50 98.50,238.00 98.00,237.50 97.50,237.00 97.00,236.50 96.50,236.00 96.00,235.50 95.50,235.00 95.00,234.50 94.50,234.00 94.00,233.50 93.50,233.00 93.00,232.50 92.50,232.00 92.00,231.50 91.50,231.00 91.00,230.50 90.50,230.00 90.00,229.50 89.50,229.00 89.00,228.50 88.50,228.00 88.00,227.50 87.50,227.00 87.00,226.50 86.50,226.00 86.00,225.50 85.50,225.00 85.00,224.50 84.50,224.00 84.00,223.50 83.50,223.00 83.00,222.50 82.50,222.00 82.00,221.50 81.50,221.00 81.00,220.50 80.50,220.00 80.00,219.50 79.50,219.00 79.00,218.50 78.50,218.00 78.00,217.50 77.50,217.00 77.00,216.50 76.50,216.00 76.00,215.50 75.50,215.00 75.00,214.50 74.50,214.00 74.00,213.50 73.50,213.00 73.00,212.50 72.50,212.00 72.00,211.50 71.50,211.00 71.00,210.50 70.50,210.00 70.00,209.50 69.50,209.00 69.00,208.50 68.50,208.00 68.00,207.50 67.50,207.00 67.00,206.50 66.50,206.00 66.00,205.50 65.50,205.00 65.00,204.50 64.50,204.00 64.00,203.50 63.50,203.00 63.00,202.50 62.50,202.00 62.00,201.50 61.50,201.00 62.00,200.50 63.00,200.50 64.00,200.50 65.00,200.50 66.00,200.50 67.00,200.50 68.00,200.50 69.00,200.50 70.00,200.50 71.00,200.50 72.00,200.50 73.00,200.50 74.00,200.50 75.00,200.50 76.00,200.50 77.00,200.50 78.00,200.50 79.00,200.50 80.00,200.50 81.00,200.50 82.00,200.50 83.00,200.50 84.00,200.50 85.00,200.50 86.00,200.50 87.00,200.50 88.00,200.50 89.00,200.50 90.00,200.50 91.00,200.50 92.00,200.50 93.00,200.50 94.00,200.50 95.00,200.50 96.00,200.50 97.00,200.50 98.00,200.50 99.00,200.50 100.00,200.50 101.00,200.50 102.00,200.50 103.00,200.50 104.00,200.50 105.00,200.50 106.00,200.50 107.00,200.50 108.00,200.50 109.00,200.50 110.00,200.50 111.00,200.50 112.00,200.50 113.00,200.50 114.00,200.50 115.00,200.50 116.00,200.50 117.00,200.50 118.00,200.50 119.00,200.50 120.00,200.50 121.00,200.50 122.00,200.50 123.00,200.50 124.00,200.50 125.00,200.50 126.00,200.50 127.00,200.50 128.00,200.50 129.00,200.50 130.00,200.50 131.00,200.50 132.00,200.50 133.00,200.50 134.00,200.50 135.00,200.50 136.00,200.50 137.00,200.50 138.00,200.50 139.00,200.50 140.00,200.50 141.00,200.50 142.00,200.50 143.00,200.50 144.00,200.50 145.00,200.50 146.00,200.50 147.00,200.50 148.00,200.50 149.00,200.50 150.00,200.50 151.00,200.50 152.00,200.50 153.00,200.50 154.00,200.50 155.00,200.50 156.00,200.50 157.00,200.50 158.00,200.50 159.00,200.50 160.00,200.50 161.00,200.50 162.00,200.50 163.00,200.50 164.00,200.50 165.00,200.50 166.00,200.50 167.00,200.50 168.00,200.50 169.00,200.50 170.00,200.50 171.00,200.50 172.00,200.50 173.00,200.50 174.00,200.50 175.00,200.50 176.00,200.50 177.00,200.50 178.00,200.50 179.00,200.50 180.00,200.50 181.00,200.50 182.00,200.50 183.00,200.50 184.00,200.50 185.00,200.50 186.00,200.50 187.00,200.50 188.00,200.50 189.00,200.50 190.00,200.50 191.00,200.50 192.00,200.50 193.00,200.50 194.00,200.50 195.00,200.50 196.00,200.50 197.00,200.50 198.00,200.50 199.00,200.50 200.00,200.50 201.00,200.50 202.00,200.50 203.00,200.50 204.00,200.50 205.00,200.50 206.00,200.50 207.00,200.50 208.00,200.50 208.50,201.00 209.00,201.50 209.50,202.00 210.00,202.50 210.50,203.00 211.00,203.50 211.50,204.00 212.00,204.50 212.50,205.00 213.00,205.50 213.50,206.00 214.00,206.50 214.50,207.00 215.00,207.50 215.50,208.00 216.00,208.50 216.50,209.00 217.00,209.50 217.50,210.00 218.00,210.50 218.50,211.00 219.00,211.50 219.50,212.00 220.00,212.50 220.50,213.00 221.00,213.50 221.50,214.00 222.00,214.50 222.50,215.00 223.00,215.50 223.50,216.00 224.00,216.50 224.50,217.00 225.00,217.50 225.50,218.00 226.00,218.50 226.50,219.00 227.00,219.50 227.50,220.00 228.00,220.50 228.50,221.00 229.00,221.50 229.50,222.00 230.00,222.50 230.50,223.00 231.00,223.50 231.50,224.00 232.00,224.50 232.50,225.00 233.00,225.50 233.50,226.00 234.00,226.50 234.50,227.00 235.00,227.50 235.50,228.00 236.00,228.50 236.50,229.00 237.00,229.50 237.50,230.00 238.00,230.50 238.50,231.00 239.00,231.50 239.50,232.00 240.00,232.50 240.50,233.00 241.00,233.50 241.50,234.00 242.00,234.50 242.50,235.00 243.00,235.50 243.50,236.00 244.00,236.50 244.50,237.00 245.00,237.50 245.50,238.00 246.00,238.50 246.50,239.00 247.00,239.50 247.50,240.00 248.00,240.50 248.50,241.00 249.00,241.50 249.50,242.00 250.00,242.50 250.50,243.00 251.00,243.50 251.50,244.00 252.00,244.50 252.50,245.00 253.00,245.50 253.50,246.00 254.00,246.50 254.50,247.00 255.00,247.50 255.50,248.00 256.00,248.50 256.50,249.00 257.00,249.50 257.50,250.00 258.00,250.50 258.50,251.00 259.00,251.50 259.50,252.00 260.00,252.50 260.50,253.00 261.00,253.50 261.50,254.00 262.00,254.50 262.50,255.00 263.00,255.50 263.50,256.00 264.00,256.50 264.50,257.00 265.00,257.50 265.50,258.00 266.00,258.50 266.50,259.00 267.00,259.50 267.50,260.00 268.00,260.50 268.50,261.00 269.00,261.50 269.50,262.00 270.00,262.50 270.50,263.00 271.00,263.50 271.50,264.00 272.00,264.50 272.50,265.00 273.00,265.50 273.50,266.00 274.00,266.50 274.50,267.00 275.00,267.50 275.50,268.00 276.00,268.50 276.50,269.00 277.00,269.50 277.50,270.00 278.00,270.50 278.50,271.00 279.00,271.50 279.50,272.00 280.00,272.50 280.50,273.00 281.00,273.50 281.50,274.00 282.00,274.50 282.50,275.00 283.00,275.50 283.50,276.00 284.00,276.50 284.50,277.00 285.00,277.50 285.50,278.00 286.00,278.50 286.50,279.00 287.00,279.50 287.50,280.00 288.00,280.50 288.50,281.00 289.00,281.50 289.50,282.00 290.00,282.50 290.50,283.00 291.00,283.50 291.50,284.00 292.00,284.50 292.50,285.00 293.00,285.50 293.50,286.00 294.00,286.50 294.50,287.00 295.00,287.50 295.50,288.00 296.00,288.50 296.50,289.00 297.00,289.50 297.50,290.00 298.00,290.50 298.50,291.00 299.00,291.50 299.50,292.00 300.00,292.50 300.50,293.00 301.00,293.50 301.50,294.00 302.00,294.50 302.50,295.00 303.00,295.50 303.50,296.00 304.00,296.50 304.50,297.00 305.00,297.50 305.50,298.00 306.00,298.50 306.50,299.00 307.00,299.50 307.50,300.00 308.00,300.50 308.50,301.00 309.00,301.50 309.50,302.00 310.00,302.50 310.50,303.00 311.00,303.50 311.50,304.00 312.00,304.50 312.50,305.00 313.00,305.50 313.50,306.00 314.00,306.50 314.50,307.00 315.00,307.50 315.50,308.00 316.00,308.50 316.50,309.00 317.00,309.50 317.50,310.00 318.00,310.50 318.50,311.00 319.00,311.50 319.50,312.00 320.00,312.50 320.50,313.00 321.00,313.50 321.50,314.00 322.00,314.50 322.50,315.00 323.00,315.50 323.50,316.00 324.00,316.50 324.50,317.00 325.00,317.50 325.50,318.00 326.00,318.50 326.50,319.00 327.00,319.50 327.50,320.00 328.00,320.50 328.50,321.00 329.00,321.50 329.50,322.00 330.00,322.50 330.50,323.00 331.00,323.50 331.50,324.00 332.00,324.50 332.50,325.00 333.00,325.50 333.50,326.00 334.00,326.50 334.50,327.00 335.00,327.50 335.50,328.00 336.00,328.50 336.50,329.00 337.00,329.50 337.50,330.00 338.00,330.50 338.50,331.00 339.00,331.50 339.50,332.00 340.00,332.50 340.50,333.00 341.00,333.50 341.50,334.00 342.00,334.50 342.50,335.00 343.00,335.50 343.50,336.00 344.00,336.50 344.50,337.00 345.00,337.50 345.50,338.00 346.00,338.50 346.50,339.00 347.00,339.50 347.50,340.00 348.00,340.50 348.50,341.00 349.00,341.50 349.50,342.00 350.00,342.50 350.50,343.00 351.00,343.50 351.50,344.00 352.00,344.50 352.50,345.00 353.00,345.50 353.50,346.00 354.00,346.50 354.50,347.00 355.00,347.50 355.50,348.00 356.00,348.50 356.50,349.00 357.00,349.50 357.50,350.00 358.00,350.50 358.50,351.00 359.00,351.50 359.50,352.00 360.00,352.50 360.50,353.00 361.00,353.50 361.50,354.00 362.00,354.50 362.50,355.00 363.00,355.50 363.50,356.00 364.00,356.50 364.50,357.00 365.00,357.50 365.50,358.00 366.00,358.50 366.50,359.00 367.00,359.50 367.50,360.00 368.00,360.50 368.50,361.00 369.00,361.50 369.50,362.00 370.00,362.50 370.50,363.00 371.00,363.50 371.50,364.00 372.00,364.50 372.50,365.00 373.00,365.50 373.50,366.00 374.00,366.50 374.50,367.00 375.00,367.50 375.50,368.00 376.00,368.50 376.50,369.00 377.00,369.50 377.50,370.00 378.00,370.50 378.50,371.00 379.00,371.50 379.50,372.00 380.00,372.50 380.50,373.00 381.00,373.50 381.50,374.00 382.00,374.50 382.50,375.00 383.00,375.50 383.50,376.00 384.00,376.50 384.50,377.00 385.00,377.50 385.50,378.00 386.00,378.50 386.50,379.00 387.00,379.50 387.50,380.00 388.00,380.50 388.50,381.00 389.00,381.50 389.50,382.00 390.00,382.50 390.50,383.00 391.00,383.50 391.50,384.00 392.00,384.50 392.50,385.00 393.00,385.50 393.50,386.00 394.00,386.50 394.50,387.00 395.00,387.50 395.50,388.00 396.00,388.50 396.50,389.00 397.00,389.50 397.50,390.00 398.00,390.50 398.50,391.00 399.00,391.50 399.50,392.00 400.00,392.50 400.50,393.00 401.00,393.50 401.50,394.00 402.00,394.50 402.50,395.00 403.00,395.50 403.50,396.00 404.00,396.50 404.50,397.00 405.00,397.50 405.50,398.00 406.00,398.50 406.50,399.00 407.00,399.50 407.50,400.00 408.00,400.50 408.50,401.00 409.00,401.50 409.50,402.00 410.00,402.50 410.50,403.00 411.00,403.50 411.50,404.00 412.00,404.50 412.50,405.00 413.00,405.50 413.50,406.00 414.00,406.50 414.50,407.00 415.00,407.50 415.50,408.00 416.00,408.50 416.50,409.00 417.00,409.50 417.50,410.00 418.00,410.50 418.50,411.00 419.00,411.50 419.50,412.00 420.00,412.50 420.50,413.00 421.00,413.50 421.50,414.00 422.00,414.50 422.50,415.00 423.00,415.50 423.50,416.00 424.00,416.50 424.50,417.00 425.00,417.50 425.50,418.00 426.00,418.50 426.50,419.00 427.00,419.50 427.50,420.00 428.00,420.50 428.50,421.00 429.00,421.50 429.50,422.00 430.00,422.50 430.50,423.00 431.00,423.50 431.50,424.00 432.00,424.50 432.50,425.00 433.00,425.50 433.50,426.00 434.00,426.50 434.50,427.00 435.00,427.50 435.50,428.00 436.00,428.50 436.50,429.00 436.00,429.50 Z" fill="white"/><path d="M 213.00,429.50 212.00,429.50 211.00,429.50 210.00,429.50 209.00,429.50 208.00,429.50 207.00,429.50 206.00,429.50 205.00,429.50 204.00,429.50 203.00,429.50 202.00,429.50 201.00,429.50 200.00,429.50 199.00,429.50 198.00,429.50 197.00,429.50 196.00,429.50 195.00,429.50 194.00,429.50 193.00,429.50 192.00,429.50 191.00,429.50 190.00,429.50 189.00,429.50 188.00,429.50 187.00,429.50 186.00,429.50 185.00,429.50 184.00,429.50 183.00,429.50 182.00,429.50 181.00,429.50 180.00,429.50 179.00,429.50 178.00,429.50 177.00,429.50 176.00,429.50 175.00,429.50 174.00,429.50 173.00,429.50 172.00,429.50 171.00,429.50 170.00,429.50 169.00,429.50 168.00,429.50 167.00,429.50 166.00,429.50 165.00,429.50 164.00,429.50 163.00,429.50 162.00,429.50 161.00,429.50 160.00,429.50 159.00,429.50 158.00,429.50 157.00,429.50 156.00,429.50 155.00,429.50 154.00,429.50 153.00,429.50 152.00,429.50 151.00,429.50 150.00,429.50 149.00,429.50 148.00,429.50 147.00,429.50 146.00,429.50 145.00,429.50 144.00,429.50 143.00,429.50 142.00,429.50 141.00,429.50 140.00,429.50 139.00,429.50 138.00,429.50 137.00,429.50 136.00,429.50 135.00,429.50 134.00,429.50 133.00,429.50 132.00,429.50 131.00,429.50 130.00,429.50 129.00,429.50 128.00,429.50 127.00,429.50 126.00,429.50 125.00,429.50 124.00,429.50 123.00,429.50 122.00,429.50 121.00,429.50 120.00,429.50 119.00,429.50 118.00,429.50 117.00,429.50 116.00,429.50 115.00,429.50 114.00,429.50 113.00,429.50 112.00,429.50 111.00,429.50 110.00,429.50 109.00,429.50 108.00,429.50 107.00,429.50 106.00,429.50 105.00,429.50 104.00,429.50 103.00,429.50 102.00,429.50 101.00,429.50 100.00,429.50 99.00,429.50 98.00,429.50 97.00,429.50 96.00,429.50 95.00,429.50 94.00,429.50 93.00,429.50 92.00,429.50 91.00,429.50 90.00,429.50 89.00,429.50 88.50,429.00 88.50,428.00 88.50,427.00 88.50,426.00 88.50,425.00 88.50,424.00 88.50,423.00 88.50,422.00 88.50,421.00 88.50,420.00 88.50,419.00 88.50,418.00 88.50,417.00 88.50,416.00 88.50,415.00 88.50,414.00 88.50,413.00 88.50,412.00 88.50,411.00 88.50,410.00 88.50,409.00 88.50,408.00 88.50,407.00 88.50,406.00 88.50,405.00 88.50,404.00 88.50,403.00 88.50,402.00 88.50,401.00 88.50,400.00 88.50,399.00 88.50,398.00 88.50,397.00 88.50,396.00 88.50,395.00 88.50,394.00 88.50,393.00 88.50,392.00 88.50,391.00 88.50,390.00 88.50,389.00 88.50,388.00 88.50,387.00 88.50,386.00 88.50,385.00 88.50,384.00 88.50,383.00 88.50,382.00 88.50,381.00 88.50,380.00 88.50,379.00 88.50,378.00 88.50,377.00 88.50,376.00 88.50,375.00 88.50,374.00 88.50,373.00 88.50,372.00 88.50,371.00 88.50,370.00 88.50,369.00 88.50,368.00 88.50,367.00 88.50,366.00 88.50,365.00 88.50,364.00 88.50,363.00 88.50,362.00 88.50,361.00 88.50,360.00 88.50,359.00 88.50,358.00 88.50,357.00 88.50,356.00 88.50,355.00 88.50,354.00 88.50,353.00 88.50,352.00 88.50,351.00 88.50,350.00 88.50,349.00 88.50,348.00 88.50,347.00 88.50,346.00 88.50,345.00 88.50,344.00 88.50,343.00 88.50,342.00 88.50,341.00 88.50,340.00 88.50,339.00 88.50,338.00 88.50,337.00 88.50,336.00 88.50,335.00 88.50,334.00 88.50,333.00 88.50,332.00 88.50,331.00 88.50,330.00 88.50,329.00 88.50,328.00 88.50,327.00 88.50,326.00 88.50,325.00 88.50,324.00 88.50,323.00 88.50,322.00 88.50,321.00 88.50,320.00 88.50,319.00 88.50,318.00 88.50,317.00 88.50,316.00 88.50,315.00 88.50,314.00 88.50,313.00 88.50,312.00 88.50,311.00 88.50,310.00 88.50,309.00 88.50,308.00 88.50,307.00 88.50,306.00 88.50,305.00 89.00,304.50 89.50,305.00 90.00,305.50 90.50,306.00 91.00,306.50 91.50,307.00 92.00,307.50 92.50,308.00 93.00,308.50 93.50,309.00 94.00,309.50 94.50,310.00 95.00,310.50 95.50,311.00 96.00,311.50 96.50,312.00 97.00,312.50 97.50,313.00 98.00,313.50 98.50,314.00 99.00,314.50 99.50,315.00 100.00,315.50 100.50,316.00 101.00,316.50 101.50,317.00 102.00,317.50 102.50,318.00 103.00,318.50 103.50,319.00 104.00,319.50 104.50,320.00 105.00,320.50 105.50,321.00 106.00,321.50 106.50,322.00 107.00,322.50 107.50,323.00 108.00,323.50 108.50,324.00 109.00,324.50 109.50,325.00 110.00,325.50 110.50,326.00 111.00,326.50 111.50,327.00 112.00,327.50 112.50,328.00 113.00,328.50 113.50,329.00 114.00,329.50 114.50,330.00 115.00,330.50 115.50,331.00 116.00,331.50 116.50,332.00 117.00,332.50 117.50,333.00 118.00,333.50 118.50,334.00 119.00,334.50 119.50,335.00 120.00,335.50 120.50,336.00 121.00,336.50 121.50,337.00 122.00,337.50 122.50,338.00 123.00,338.50 123.50,339.00 124.00,339.50 124.50,340.00 125.00,340.50 125.50,341.00 126.00,341.50 126.50,342.00 127.00,342.50 127.50,343.00 128.00,343.50 128.50,344.00 129.00,344.50 129.50,345.00 130.00,345.50 130.50,346.00 131.00,346.50 131.50,347.00 132.00,347.50 132.50,348.00 133.00,348.50 133.50,349.00 134.00,349.50 134.50,350.00 135.00,350.50 135.50,351.00 136.00,351.50 136.50,352.00 137.00,352.50 137.50,353.00 138.00,353.50 138.50,354.00 139.00,354.50 139.50,355.00 140.00,355.50 140.50,356.00 141.00,356.50 141.50,357.00 142.00,357.50 142.50,358.00 143.00,358.50 143.50,359.00 144.00,359.50 144.50,360.00 145.00,360.50 145.50,361.00 146.00,361.50 146.50,362.00 147.00,362.50 147.50,363.00 148.00,363.50 148.50,364.00 149.00,364.50 149.50,365.00 150.00,365.50 150.50,366.00 151.00,366.50 151.50,367.00 152.00,367.50 152.50,368.00 153.00,368.50 153.50,369.00 154.00,369.50 154.50,370.00 155.00,370.50 155.50,371.00 156.00,371.50 156.50,372.00 157.00,372.50 157.50,373.00 158.00,373.50 158.50,374.00 159.00,374.50 159.50,375.00 160.00,375.50 160.50,376.00 161.00,376.50 161.50,377.00 162.00,377.50 162.50,378.00 163.00,378.50 163.50,379.00 164.00,379.50 164.50,380.00 165.00,380.50 165.50,381.00 166.00,381.50 166.50,382.00 167.00,382.50 167.50,383.00 168.00,383.50 168.50,384.00 169.00,384.50 169.50,385.00 170.00,385.50 170.50,386.00 171.00,386.50 171.50,387.00 172.00,387.50 172.50,388.00 173.00,388.50 173.50,389.00 174.00,389.50 174.50,390.00 175.00,390.50 175.50,391.00 176.00,391.50 176.50,392.00 177.00,392.50 177.50,393.00 178.00,393.50 178.50,394.00 179.00,394.50 179.50,395.00 180.00,395.50 180.50,396.00 181.00,396.50 181.50,397.00 182.00,397.50 182.50,398.00 183.00,398.50 183.50,399.00 184.00,399.50 184.50,400.00 185.00,400.50 185.50,401.00 186.00,401.50 186.50,402.00 187.00,402.50 187.50,403.00 188.00,403.50 188.50,404.00 189.00,404.50 189.50,405.00 190.00,405.50 190.50,406.00 191.00,406.50 191.50,407.00 192.00,407.50 192.50,408.00 193.00,408.50 193.50,409.00 194.00,409.50 194.50,410.00 195.00,410.50 195.50,411.00 196.00,411.50 196.50,412.00 197.00,412.50 197.50,413.00 198.00,413.50 198.50,414.00 199.00,414.50 199.50,415.00 200.00,415.50 200.50,416.00 201.00,416.50 201.50,417.00 202.00,417.50 202.50,418.00 203.00,418.50 203.50,419.00 204.00,419.50 204.50,420.00 205.00,420.50 205.50,421.00 206.00,421.50 206.50,422.00 207.00,422.50 207.50,423.00 208.00,423.50 208.50,424.00 209.00,424.50 209.50,425.00 210.00,425.50 210.50,426.00 211.00,426.50 211.50,427.00 212.00,427.50 212.50,428.00 213.00,428.50 213.50,429.00 213.00,429.50 Z" fill="white"/>
</svg>